<mxfile host="app.diagrams.net" modified="2022-12-04T19:43:56.048Z" agent="5.0 (Windows NT 10.0; Win64; x64) AppleWebKit/537.36 (KHTML, like Gecko) Chrome/108.0.0.0 Safari/537.36" etag="0tQ6NnDBN9pBlBmG222q" version="20.6.0" type="github">
  <diagram id="pKWZiZOUUg1ID_ccBzCS" name="Página-1">
    <mxGraphModel dx="868" dy="474" grid="1" gridSize="10" guides="1" tooltips="1" connect="1" arrows="1" fold="1" page="1" pageScale="1" pageWidth="827" pageHeight="1169" math="0" shadow="0">
      <root>
        <mxCell id="0" />
        <mxCell id="1" parent="0" />
        <mxCell id="DOPP408kxC1jsFutibKA-5" value="Associação&lt;br&gt;&lt;br&gt;&lt;br&gt;&lt;br&gt;&lt;br&gt;&lt;br&gt;&lt;br&gt;&lt;br&gt;&lt;br&gt;&lt;br&gt;&lt;br&gt;&lt;br&gt;" style="ellipse;whiteSpace=wrap;html=1;aspect=fixed;fillColor=#1ba1e2;fontColor=#ffffff;strokeColor=#006EAF;" parent="1" vertex="1">
          <mxGeometry x="550" y="87" width="250" height="250" as="geometry" />
        </mxCell>
        <mxCell id="DOPP408kxC1jsFutibKA-7" value="Escritor" style="swimlane;fontStyle=0;childLayout=stackLayout;horizontal=1;startSize=26;fillColor=none;horizontalStack=0;resizeParent=1;resizeParentMax=0;resizeLast=0;collapsible=1;marginBottom=0;" parent="1" vertex="1">
          <mxGeometry x="40" y="120" width="140" height="52" as="geometry" />
        </mxCell>
        <mxCell id="DOPP408kxC1jsFutibKA-8" value="Ferramenta" style="text;strokeColor=none;fillColor=none;align=left;verticalAlign=top;spacingLeft=4;spacingRight=4;overflow=hidden;rotatable=0;points=[[0,0.5],[1,0.5]];portConstraint=eastwest;" parent="DOPP408kxC1jsFutibKA-7" vertex="1">
          <mxGeometry y="26" width="140" height="26" as="geometry" />
        </mxCell>
        <mxCell id="DOPP408kxC1jsFutibKA-24" value="" style="endArrow=open;endFill=1;endSize=12;html=1;rounded=0;entryX=0.014;entryY=-0.038;entryDx=0;entryDy=0;entryPerimeter=0;" parent="DOPP408kxC1jsFutibKA-7" target="DOPP408kxC1jsFutibKA-12" edge="1">
          <mxGeometry width="160" relative="1" as="geometry">
            <mxPoint x="140" y="39" as="sourcePoint" />
            <mxPoint x="290" y="40" as="targetPoint" />
          </mxGeometry>
        </mxCell>
        <mxCell id="DOPP408kxC1jsFutibKA-11" value="Ferramenta" style="swimlane;fontStyle=0;childLayout=stackLayout;horizontal=1;startSize=26;fillColor=none;horizontalStack=0;resizeParent=1;resizeParentMax=0;resizeLast=0;collapsible=1;marginBottom=0;" parent="1" vertex="1">
          <mxGeometry x="320" y="120" width="140" height="52" as="geometry">
            <mxRectangle x="320" y="120" width="100" height="30" as="alternateBounds" />
          </mxGeometry>
        </mxCell>
        <mxCell id="DOPP408kxC1jsFutibKA-12" value="+ field: type" style="text;strokeColor=none;fillColor=none;align=left;verticalAlign=top;spacingLeft=4;spacingRight=4;overflow=hidden;rotatable=0;points=[[0,0.5],[1,0.5]];portConstraint=eastwest;" parent="DOPP408kxC1jsFutibKA-11" vertex="1">
          <mxGeometry y="26" width="140" height="26" as="geometry" />
        </mxCell>
      </root>
    </mxGraphModel>
  </diagram>
</mxfile>
